<?xml version="1.0" encoding="UTF-8"?><svg width="24px" height="24px" viewBox="0 0 24 24" stroke-width="1.5" fill="none" xmlns="http://www.w3.org/2000/svg" color="currentColor"><path d="M8.5 4H6C4.89543 4 4 4.89543 4 6V20C4 21.1046 4.89543 22 6 22H18C19.1046 22 20 21.1046 20 20V6C20 4.89543 19.1046 4 18 4H15.5" stroke="currentColor" stroke-width="1.5" stroke-linecap="round"></path><path d="M8 6.4V4.5C8 4.22386 8.22386 4 8.5 4C8.77614 4 9.00422 3.77604 9.05152 3.50398C9.19968 2.65171 9.77399 1 12 1C14.226 1 14.8003 2.65171 14.9485 3.50398C14.9958 3.77604 15.2239 4 15.5 4C15.7761 4 16 4.22386 16 4.5V6.4C16 6.73137 15.7314 7 15.4 7H8.6C8.26863 7 8 6.73137 8 6.4Z" stroke="currentColor" stroke-width="1.5" stroke-linecap="round"></path>
  
<path id="heart-path" d="M22 8.86222C22 10.4087 21.4062 11.8941 20.3458 12.9929C17.9049 15.523 15.5374 18.1613 13.0053 20.5997C12.4249 21.1505 11.5042 21.1304 10.9488 20.5547L3.65376 12.9929C1.44875 10.7072 1.44875 7.01723 3.65376 4.73157C5.88044 2.42345 9.50794 2.42345 11.7346 4.73157L11.9998 5.00642L12.2648 4.73173C13.3324 3.6245 14.7864 3 16.3053 3C17.8242 3 19.2781 3.62444 20.3458 4.73157C21.4063 5.83045 22 7.31577 22 8.86222Z" stroke="currentColor" stroke-width="3" stroke-linejoin="round"
transform="translate(6, 8.5) scale(0.5)"></path>
</svg>